<?xml version="1.0" encoding="utf-8"?>
<!-- Generator: Adobe Illustrator 24.0.3, SVG Export Plug-In . SVG Version: 6.00 Build 0)  -->
<svg version="1.1" id="Layer_1" xmlns="http://www.w3.org/2000/svg" xmlns:xlink="http://www.w3.org/1999/xlink" x="0px" y="0px"
	 viewBox="0 0 295.19 206.45" style="enable-background:new 0 0 295.19 206.45;" xml:space="preserve">
<style type="text/css">
	.st0{fill:#FFDE00;}
	.st1{fill:none;stroke:#FFDE00;stroke-width:4.0106;stroke-linecap:round;}
	.st2{fill:#A7DCF8;}
	.st3{fill:#DAF0FD;}
	.st4{fill:#F194BE;}
	.st5{fill:none;stroke:#000000;stroke-width:1.9354;stroke-linecap:round;}
</style>
<g>
	<path class="st0" d="M128.32,24.32c-22.72,0.43-60.2,14.84-58.82,56.15c1.42,42.47,28.78,52.27,57.63,52.29
		c26.97,0.02,57.84-12.03,57.06-55.03C183.41,34.72,151.94,23.87,128.32,24.32z"/>
	<path class="st1" d="M117.24,30.27c0.24-2.85-1.25-6.91-2.18-9.65c-0.84-2.51-1.72-5.05-2.55-7.56c-1.23-3.71-2.45-7.4-3.76-11.05"
		/>
	<path class="st1" d="M153.05,30.33c2.87-9.26,6.82-18.03,9.14-27.4"/>
	<path class="st1" d="M176.67,52.17c4.08-3.55,7.74-7.26,12.04-10.52c2.6-1.97,5.48-4.84,8.47-6.19"/>
	<path class="st1" d="M181.8,81.81c1.79,0.84,5.42-0.58,7.35-0.96c2.81-0.55,5.17-0.71,7.63-0.82c3.67-0.17,7.35-0.67,11.08-0.67"/>
	<path class="st1" d="M168.87,114.56c1.79-0.67,5.35,2.28,6.92,3.19c2.37,1.36,4.75,2.68,7.16,3.99c3.03,1.65,6.91,5.02,10.2,5.75"
		/>
	<path class="st1" d="M144.56,128.72c1.48,0.89,2.56,6.9,3.16,8.85c1.05,3.39,2.2,6.75,3.21,10.14c0.69,2.3,2.67,7.62,3.48,9.4"/>
	<path class="st1" d="M80.86,110.77c0.63-0.92-1.21,0.85-1.6,1.11c-1.75,1.17-3.64,2.09-5.48,3.12c-3.35,1.87-6.41,4.03-9.58,6.19
		c-1.67,1.14-6.35,4.84-8.07,6.51"/>
	<path class="st1" d="M74.18,75.56c-9.76-1.68-21.54-1.65-31.86-1.78"/>
	<path class="st1" d="M85.32,45.49c-0.79-2-4.18-3.75-5.98-4.81c-3.54-2.09-6.62-4.74-10.08-6.96c-2.24-1.44-4.3-2.85-6.27-4.66
		c-0.97-0.89-3.05-3.05-3.74-3.18"/>
	<path class="st2" d="M125.81,159.3c3.86,22.61,29.79,16.55,29.79,16.55s-6.93,21.97,22.61,28.68
		c24.27,5.51,33.09-14.35,33.09-14.35s11.44,22.39,40.16,14.62c26.47-7.17,22.36-27.86,22.36-27.86s20.23-1.1,21.33-23.17
		c1.1-22.06-20.41-24.27-20.41-24.27s6.62-20.41-13.79-28.13c-21.86-8.27-34.75,16-34.75,16S224,99.73,208,96.42
		c-24.78-5.13-34.2,16.55-34.2,16.55s-10.63-12.11-26.04-3.77c-13.23,7.17-8.71,25.84-8.71,25.84S122.55,140.2,125.81,159.3z"/>
	<path class="st3" d="M104.03,126.52c0,0,7.74-9.25,3-17.15c-6.43-10.72-18.87-3.8-18.87-3.8s-5.14-21.5-24.43-23.21
		c-19.29-1.71-27.44,18.87-27.44,18.87S26,93.51,15.28,100.37c-10.72,6.86-6,19.29-6,19.29s-15.01,11.14-6.86,24.01
		c8.15,12.86,25.07,4.31,25.07,4.31s0.66,14.12,16.09,16.26c15.44,2.15,24.31-14.15,24.31-14.15s10.85,18.87,31,8.15
		C119.04,147.53,104.03,126.52,104.03,126.52z"/>
	<path class="st4" d="M153.96,92.8c0,2.68,3.63,4.87,8.11,4.87c4.47,0,8.11-2.18,8.11-4.87c0-2.69-3.64-4.87-8.11-4.87
		C157.59,87.93,153.96,90.11,153.96,92.8z"/>
	<path class="st4" d="M87.99,92.8c0,2.69,3.63,4.87,8.11,4.87c4.48,0,8.11-2.18,8.11-4.87c0-2.69-3.63-4.87-8.11-4.87
		C91.62,87.93,87.99,90.11,87.99,92.8z"/>
	<path d="M100.62,79.82c0-2.67-2.17-4.84-4.84-4.84c-2.67,0-4.84,2.16-4.84,4.84c0,2.67,2.17,4.84,4.84,4.84
		C98.45,84.66,100.62,82.49,100.62,79.82z"/>
	<path d="M166.91,79.82c0-2.67-2.17-4.84-4.83-4.84c-2.67,0-4.84,2.16-4.84,4.84c0,2.67,2.16,4.84,4.84,4.84
		C164.74,84.66,166.91,82.49,166.91,79.82z"/>
	<path class="st5" d="M136.45,99.2c0,0-1.48,8.38-8.86,6.9c-7.39-1.48-6.9-7.39-6.9-7.39"/>
</g>
</svg>
