<?xml version="1.0" encoding="utf-8"?>
<!-- Generator: Adobe Illustrator 24.0.3, SVG Export Plug-In . SVG Version: 6.00 Build 0)  -->
<svg version="1.1" id="Layer_1" xmlns="http://www.w3.org/2000/svg" xmlns:xlink="http://www.w3.org/1999/xlink" x="0px" y="0px"
	 viewBox="0 0 216.87 128.85" style="enable-background:new 0 0 216.87 128.85;" xml:space="preserve">
<style type="text/css">
	.st0{fill:#B4DBC9;}
	.st1{fill:#FFE351;}
	.st2{fill:#F194BE;}
	.st3{fill:#A7DCF8;}
</style>
<g>
	<path class="st0" d="M117.38,44.45c-71,0.85-61.63,62.11-61.63,62.11l16.66,0.38c0,0,4.54-49.98,45.06-48.48
		c40.52,1.52,41.27,50.37,41.27,50.37l18.18-1.89C176.92,106.93,174.2,43.77,117.38,44.45z"/>
	<g>
		<path class="st1" d="M174.59,91.04L174.59,91.04C174.59,91.09,174.59,91.07,174.59,91.04z"/>
		<path class="st1" d="M121.58,20.61c-41.96-0.8-63.99,14.77-76.87,42.79C31.83,91.42,36,99.75,36,99.75l17.04-3.03
			c-0.37-1.89,0.67-44.88,35.88-57.65c36.38-13.2,58.43,0.44,68.17,10.79c17.13,18.22,17.51,40.33,17.52,41.18
			c0-1.13,19.69-0.75,19.69-0.75S186.6,21.84,121.58,20.61z"/>
	</g>
	<path class="st2" d="M111.21,0.03C16.08,2.1,16.51,91.29,16.51,91.29l16.3,1.89c0,0,2.42-77.99,81.01-78.57
		c75.97-0.57,81.21,72.89,81.21,71c0-1.89,20.11,2.86,20.11,2.86S198.14-1.86,111.21,0.03z"/>
	<path class="st3" d="M87.22,96.07c-2-11.65-15.34-8.52-15.34-8.52s3.57-11.31-11.64-14.76c-12.5-2.84-17.04,7.38-17.04,7.38
		s-5.67-13.09-20.45-9.09c-13.63,3.69-11.74,15.9-11.74,15.9S0.59,87.54,0.02,98.91c-0.56,11.36,10.51,12.5,10.51,12.5
		s-3.41,10.51,7.1,14.49c11.26,4.25,17.89-8.24,17.89-8.24s1.14,9.09,9.38,10.79c12.76,2.64,17.61-8.52,17.61-8.52
		s5.13,4.86,13.07,0.57c6.81-3.7,4.83-11.93,4.83-11.93S88.89,105.9,87.22,96.07z"/>
	<path class="st3" d="M213.32,97.77c0,0,5.12-6.13,1.99-11.36c-4.26-7.1-12.5-2.52-12.5-2.52s-3.4-14.24-16.19-15.37
		c-12.78-1.14-18.17,12.49-18.17,12.49s-6.82-5.11-13.91-0.57c-7.11,4.55-3.98,12.78-3.98,12.78s-9.94,7.38-4.54,15.91
		c5.4,8.52,16.6,2.86,16.6,2.86s0.43,9.35,10.66,10.77c10.22,1.42,16.1-9.37,16.1-9.37s7.19,12.5,20.54,5.4
		C223.25,111.69,213.32,97.77,213.32,97.77z"/>
</g>
</svg>
