<?xml version="1.0" encoding="utf-8"?>
<!-- Generator: Adobe Illustrator 24.0.3, SVG Export Plug-In . SVG Version: 6.00 Build 0)  -->
<svg version="1.1" id="Layer_1" xmlns="http://www.w3.org/2000/svg" xmlns:xlink="http://www.w3.org/1999/xlink" x="0px" y="0px"
	 viewBox="0 0 154.16 192.29" style="enable-background:new 0 0 154.16 192.29;" xml:space="preserve">
<style type="text/css">
	.st0{fill:#D1CFCB;}
	.st1{fill:none;stroke:#000000;stroke-width:1.8936;stroke-linecap:round;}
	.st2{fill:#F194BE;}
	.st3{fill:#9DD1BB;}
	.st4{fill:#F3A0AF;}
	.st5{fill:#F49C70;}
	.st6{fill:#FFDE00;}
	.st7{fill:#FFE351;}
	.st8{fill:#E4E78B;}
	.st9{fill:#C3C2E2;}
</style>
<g>
	<g>
		<path class="st0" d="M135.75,77.21c0,0,29.64-8.88,13.7-35.34c-9.01-14.96-26.24-9.29-26.24-9.29S116.01,2.54,89.06,0.14
			C62.1-2.25,50.72,26.5,50.72,26.5s-14.38-10.79-29.36-1.2c-14.98,9.59-8.38,26.96-8.38,26.96S-8,67.84,3.39,85.81
			c11.38,17.96,35.03,6.03,35.03,6.03s0.92,19.73,22.49,22.72c21.57,3,25.47-19.77,25.47-19.77s14.88,27.73,40.59,14.21
			C144.73,99.65,135.75,77.21,135.75,77.21z"/>
		<path class="st1" d="M86.02,77.05c0,0-1.44-8.2-8.67-6.75c-7.22,1.44-6.74,7.23-6.74,7.23"/>
		<path class="st2" d="M56.62,68.13c0,2.28-3.07,4.13-6.88,4.13c-3.8,0-6.88-1.86-6.88-4.13c0-2.28,3.08-4.13,6.88-4.13
			C53.55,64,56.62,65.85,56.62,68.13z"/>
		<path class="st2" d="M112.59,68.13c0,2.28-3.08,4.13-6.88,4.13c-3.8,0-6.88-1.85-6.88-4.13c0-2.28,3.08-4.13,6.88-4.13
			C109.51,64,112.59,65.85,112.59,68.13z"/>
		<polyline class="st1" points="112.81,51.5 102.25,54.71 113.73,60.22 		"/>
		<polyline class="st1" points="43.54,51.5 54.08,54.71 42.62,60.22 		"/>
	</g>
	<g>
		<path class="st3" d="M75.31,142.21c0,0-14.34,25.7,0,24.5C89.66,165.52,75.31,142.21,75.31,142.21z"/>
		<path class="st4" d="M48.95,117.39c0,0-14.61,22.09-1.16,22.48C60.86,140.24,48.95,117.39,48.95,117.39z"/>
		<path class="st5" d="M104,122.74c0,0-13.14,20.66,0.17,20.66C116.66,143.4,104,122.74,104,122.74z"/>
		<path class="st6" d="M22.91,146.51c0,0-13.14,20.66,0.17,20.66C35.57,167.17,22.91,146.51,22.91,146.51z"/>
		<path class="st7" d="M101.78,167.65c0,0-15.37,23.39-2.05,24.59C114.03,193.52,101.78,167.65,101.78,167.65z"/>
		<path class="st8" d="M52.4,163.76c0,0-16.42,26.16-1.21,25.55C66.39,188.7,52.4,163.76,52.4,163.76z"/>
		<path class="st9" d="M129.45,141.75c0,0-15.02,24.95,0.58,23.63C143.67,164.22,129.45,141.75,129.45,141.75z"/>
	</g>
</g>
</svg>
