<?xml version="1.0" encoding="utf-8"?>
<!-- Generator: Adobe Illustrator 24.0.3, SVG Export Plug-In . SVG Version: 6.00 Build 0)  -->
<svg version="1.1" id="Layer_1" xmlns="http://www.w3.org/2000/svg" xmlns:xlink="http://www.w3.org/1999/xlink" x="0px" y="0px"
	 viewBox="0 0 166.93 157.57" style="enable-background:new 0 0 166.93 157.57;" xml:space="preserve">
<style type="text/css">
	.st0{fill:#FFDE00;}
	.st1{fill:none;stroke:#000000;stroke-width:1.8977;stroke-linecap:round;}
	.st2{fill:#F194BE;}
	.st3{fill:none;stroke:#FFDE00;stroke-width:3.9484;stroke-linecap:round;}
</style>
<g>
	<path class="st0" d="M86.65,23.94c-22.37,0.42-59.27,14.62-57.91,55.28c1.4,41.81,28.34,51.46,56.73,51.48
		c26.56,0.02,56.95-11.84,56.18-54.18C140.88,34.18,109.9,23.5,86.65,23.94z"/>
	<g>
		<path class="st1" d="M93.61,102.55c0,0-1.44,8.21-8.69,6.76c-7.24-1.45-6.76-7.25-6.76-7.25"/>
		<path class="st2" d="M107.61,100.06c0,2.29,3.09,4.14,6.9,4.14c3.81,0,6.9-1.85,6.9-4.14c0-2.29-3.08-4.14-6.9-4.14
			C110.7,95.92,107.61,97.77,107.61,100.06z"/>
		<path class="st2" d="M51.52,100.06c0,2.29,3.09,4.14,6.89,4.14c3.82,0,6.9-1.85,6.9-4.14c0-2.29-3.08-4.14-6.9-4.14
			C54.61,95.92,51.52,97.77,51.52,100.06z"/>
		<polyline class="st1" points="51.31,83.4 61.88,86.62 50.38,92.13 		"/>
		<polyline class="st1" points="120.72,83.4 110.15,86.62 121.65,92.13 		"/>
	</g>
	<path class="st3" d="M75.73,29.8c0.24-2.8-1.23-6.8-2.13-9.5c-0.83-2.47-1.7-4.97-2.51-7.44c-1.21-3.65-2.42-7.29-3.7-10.88"/>
	<path class="st3" d="M111,29.86c2.82-9.11,6.72-17.75,8.99-26.98"/>
	<path class="st3" d="M134.25,51.36c4.01-3.5,7.61-7.14,11.84-10.36c2.55-1.94,5.4-4.76,8.34-6.09"/>
	<path class="st3" d="M139.29,80.54c1.77,0.83,5.35-0.57,7.25-0.94c2.76-0.54,5.09-0.7,7.51-0.81c3.62-0.17,7.23-0.66,10.91-0.66"/>
	<path class="st3" d="M126.57,112.78c1.76-0.66,5.26,2.24,6.82,3.13c2.34,1.34,4.68,2.64,7.05,3.93c2.98,1.62,6.8,4.94,10.04,5.66"
		/>
	<path class="st3" d="M102.63,126.73c1.46,0.88,2.52,6.79,3.11,8.71c1.04,3.34,2.16,6.64,3.16,9.99c0.67,2.27,2.63,7.5,3.44,9.25"/>
	<path class="st3" d="M69.39,126.79c-3.31,9.37-4.87,19.64-8.26,28.81"/>
	<path class="st3" d="M39.92,109.05c0.62-0.9-1.19,0.84-1.57,1.09c-1.73,1.16-3.58,2.06-5.4,3.08c-3.29,1.84-6.31,3.97-9.42,6.09
		c-1.65,1.13-6.25,4.76-7.95,6.41"/>
	<path class="st3" d="M33.34,74.39c-9.61-1.65-21.21-1.62-31.37-1.75"/>
	<path class="st3" d="M44.32,44.78c-0.78-1.97-4.12-3.7-5.89-4.74c-3.5-2.06-6.52-4.66-9.92-6.85c-2.21-1.43-4.24-2.81-6.17-4.59
		c-0.96-0.88-3-3-3.68-3.13"/>
</g>
</svg>
